Patient4_TMGait_0pt7_02_left_02_GRF.mot
version=1
nRows=32
nColumns=19
inDegrees=no
endheader
time	F1x	F1y	F1z	M1x	M1y	M1z	F2x	F2y	F2z	M2x	M2y	M2z	EC1x	EC1y	EC1z	EC2x	EC2y	EC2z
1.81	-2.5042	10.442	7.5427	-4.5938	-7.631	10.5394	-51.4612	736.6682	-52.1069	271.2231	91.3758	843.927	-0.0592	0.0182	-0.0073	-0.0462	0.0165	0.9585
1.8219	-1.8299	7.8812	5.0329	-3.3769	-5.185	8.1378	-45.9544	737.3498	-57.7372	272.7896	91.6625	840.2224	-0.0592	0.0182	-0.0073	-0.0462	0.0165	0.9585
1.8339	-1.2434	5.7766	2.9513	-2.3735	-3.1253	6.1507	-41.226	738.7193	-62.1202	274.3849	91.3492	836.7651	-0.0592	0.0182	-0.0073	-0.0462	0.0165	0.9585
1.8458	-0.77658	4.2372	1.395	-1.6329	-1.5618	4.6758	-37.501	740.7295	-65.0359	275.9409	90.4595	833.6459	-0.0592	0.0182	-0.0073	-0.0462	0.0165	0.9585
1.8577	-0.44895	3.2389	0.33753	-1.1454	-0.48673	3.7213	-34.7197	743.1168	-66.5745	277.3705	89.0742	830.6546	-0.0592	0.0182	-0.0073	-0.0462	0.0165	0.9585
1.8696	-0.24873	2.6721	-0.29434	-0.86377	0.16296	3.2005	-32.6138	745.4321	-66.9562	278.5517	87.2488	827.3231	-0.0592	0.0182	-0.0073	-0.0462	0.0165	0.9585
1.8816	-0.17022	2.3932	-0.61084	-0.72284	0.48263	2.9759	-30.8212	747.1892	-66.4477	279.3552	85.0125	823.1177	-0.0592	0.0182	-0.0073	-0.0462	0.0165	0.9585
1.8935	-0.18102	2.2454	-0.69629	-0.653	0.55361	2.8527	-28.921	747.9031	-65.2718	279.654	82.334	817.4709	-0.0592	0.0182	-0.0073	-0.0462	0.0165	0.9585
1.9054	-0.27088	2.0784	-0.63678	-0.58853	0.45522	2.6605	-26.5357	747.2423	-63.6358	279.368	79.1874	809.9999	-0.0592	0.0182	-0.0073	-0.0462	0.0165	0.9585
1.9174	-0.4103	1.7137	-0.48668	-0.45995	0.24576	2.2013	-23.3265	745.1168	-61.7079	278.4928	75.545	800.6025	-0.0592	0.0182	-0.0073	-0.0462	0.0165	0.9585
1.9293	-0.59171	1.0184	-0.29094	-0.21312	-0.028396	1.3387	-19.117	741.7153	-59.6766	277.1136	71.4739	789.5097	-0.0592	0.0182	-0.0073	-0.0462	0.0165	0.9585
1.9412	-0.78466	-0.13169	-0.078656	0.19739	-0.32967	-0.079737	-13.8552	737.5053	-57.7342	275.4095	67.1108	777.2662	-0.0592	0.0182	-0.0073	-0.0462	0.0165	0.9585
1.9531	-0.96609	-1.7811	0.12576	0.79036	-0.62352	-2.0999	-7.6551	733.2217	-56.1007	273.6476	62.6934	764.7446	-0.0592	0.0182	-0.0073	-0.0462	0.0165	0.9585
1.9651	-1.0687	-3.8866	0.29702	1.5501	-0.85485	-4.684	-0.76636	729.6962	-54.9594	272.1346	58.4819	752.9289	-0.0592	0.0182	-0.0073	-0.0462	0.0165	0.9585
1.977	-1.0247	-6.2254	0.39723	2.3964	-0.94747	-7.5591	6.466	727.7906	-54.454	271.1815	54.7385	742.8567	-0.0592	0.0182	-0.0073	-0.0462	0.0165	0.9585
1.9889	-0.70812	-8.35	0.37552	3.1625	-0.79082	-10.1996	13.6385	728.1397	-54.6509	271.0174	51.6727	735.3244	-0.0592	0.0182	-0.0073	-0.0462	0.0165	0.9585
2.0009	0.0096635	-9.4824	0.16104	3.5611	-0.25103	-11.6583	20.3199	730.9794	-55.5441	271.7226	49.4333	730.7221	-0.0592	0.0182	-0.0073	-0.0462	0.0165	0.9585
2.0128	1.2918	-8.4674	-0.32187	3.1611	0.82151	-10.5358	26.1236	736.0311	-57.042	273.1852	48.0741	728.8978	-0.0592	0.0182	-0.0073	-0.0462	0.0165	0.9585
2.0247	3.2689	-3.6959	-1.1621	1.3657	2.5844	-4.8848	30.7152	742.4736	-58.9856	275.0959	47.5649	729.1453	-0.0592	0.0182	-0.0073	-0.0462	0.0165	0.9585
2.0366	6.0211	6.8055	-2.4316	-2.5556	5.1558	7.6679	33.927	749.0777	-61.1762	276.9991	47.786	730.3078	-0.0592	0.0182	-0.0073	-0.0462	0.0165	0.9585
2.0486	9.4643	25.2131	-4.1741	-9.402	8.5496	29.757	35.7727	754.4062	-63.3826	278.3693	48.5221	730.9771	-0.0592	0.0182	-0.0073	-0.0462	0.0165	0.9585
2.0605	13.2872	53.4827	-6.3363	-19.8838	12.5739	63.7516	36.4537	756.9308	-65.3443	278.6599	49.4615	729.6073	-0.0592	0.0182	-0.0073	-0.0462	0.0165	0.9585
2.0724	16.7955	92.6552	-8.7266	-34.3645	16.7216	110.9226	36.2778	755.1502	-66.7762	277.3452	50.2303	724.6606	-0.0592	0.0182	-0.0073	-0.0462	0.0165	0.9585
2.0844	18.7976	141.8125	-10.9059	-52.4716	20.0031	170.1797	35.59	747.6293	-67.3838	273.9377	50.4382	714.6627	-0.0592	0.0182	-0.0073	-0.0462	0.0165	0.9585
2.0963	17.6017	196.7933	-12.1237	-72.631	20.883	236.5489	34.6625	733.1146	-66.8896	268.0229	49.7362	698.3473	-0.0592	0.0182	-0.0073	-0.0462	0.0165	0.9585
2.1082	12.2107	249.7824	-11.3048	-91.9148	17.7275	300.6682	33.6997	710.7332	-65.1158	259.3225	47.896	674.8239	-0.0592	0.0182	-0.0073	-0.0462	0.0165	0.9585
2.1201	4.3492	292.5323	-7.2998	-107.2842	9.9415	352.4971	32.7906	680.2239	-62.0819	247.7704	44.9224	643.8104	-0.0592	0.0182	-0.0073	-0.0462	0.0165	0.9585
2.1321	-3.7891	322.9564	-1.1518	-117.9929	-0.45201	389.2491	31.9739	642.1834	-58.0103	233.5844	41.0278	605.8594	-0.0592	0.0182	-0.0073	-0.0462	0.0165	0.9585
2.144	-10.9478	343.9247	5.8816	-125.134	-11.5283	414.1659	31.2627	597.909	-53.3073	217.2185	36.5927	562.2235	-0.0592	0.0182	-0.0073	-0.0462	0.0165	0.9585
2.1559	-16.675	359.9275	12.9595	-130.4022	-22.0548	432.6771	30.7377	549.0176	-48.3858	199.2458	31.9714	514.4382	-0.0592	0.0182	-0.0073	-0.0462	0.0165	0.9585
2.1679	-20.8214	375.1142	19.0234	-135.3694	-30.7935	449.7957	30.3391	497.2705	-43.4202	180.2983	27.3443	464.2118	-0.0592	0.0182	-0.0073	-0.0462	0.0165	0.9585
2.1798	-23.7207	391.8433	23.8024	-140.9243	-37.4691	468.5823	29.9772	444.255	-38.4343	160.9606	22.7797	413.0746	-0.0592	0.0182	-0.0073	-0.0462	0.0165	0.9585
